<svg xmlns="http://www.w3.org/2000/svg" width="666.77" height="747" viewBox="0 0 666.77 747"><defs><style>.cls-1{isolation:isolate;}.cls-2{mix-blend-mode:multiply;}.cls-3{fill:#ff931e;}</style></defs><g class="cls-1"><g id="Layer_1" data-name="Layer 1"><g class="cls-2"><path class="cls-3" d="M577.47,20.27c7.15,1.34,33.38,10,23.39,56.19s-19.9,57.68-23.59,65.75c-1.29,2.81,4.52,8.9-.7,31.48S563,227.46,555,234.94c0,0,1.15,12.09-5.32,22.92S532.47,307.39,528,316s-20.35,9.68-25.2,5.84-11.95-14.5-3.78-44.39,7.63-51,11.93-52.19c7.31-2.08,1-1.6.87-15.45s9.8-70.75,15.76-77.27c3.55-3.88-5.39-10.29,8.22-48.45S559.14,16.87,577.47,20.27Z" transform="translate(-66.83 -20)"/><path class="cls-3" d="M359.73,22.67c8.91,1.58,21.57,20.71,24,42s7.87,33-6.68,35.88c0,0,8.65-.78,11.92,14.85s5.44,55.66,6.31,66.83.34,17.64-8.62,23.75c0,0,9.14,4,12.35,15.82s12.54,41.38,14.7,48.92-6.85,22.32-14.94,28.53-19.46-3.55-23.06-7.1-15.53-31.31-19.16-47.19c-2-9-4.85-29.67-6.54-33.92s-10.93-46-10.93-59.48,1.23-29.13,1.23-29.13.66-7.46-4.52-16.39-9.66-51.23-4.06-64.94C337.87,25.83,347.55,20.5,359.73,22.67Z" transform="translate(-66.83 -20)"/><path class="cls-3" d="M150.72,109.32c6.95-2.95,27.76-11.78,43.43,10.62s26.61,66.91,20.2,69.93c0,0,15.88,5.1,26.5,31.06,16.4,40.1,11.29,43.75,13.48,48.45,0,0,15.84,7.91,23.08,20.52S295.89,327,290.8,340s-11,22.09-24.49,14.7-36.47-46-43.05-55.67a14.49,14.49,0,0,1-2.19-10.13S215.44,287.46,203,268s-21.77-37.85-22.83-40.85c-4.33-12.25-7.68-25.55-7.68-25.55s-28.58-37.47-28.83-65S150.72,109.32,150.72,109.32Z" transform="translate(-66.83 -20)"/><path class="cls-3" d="M186.14,408.72s7.24,10,14.49,19.27,12.49,31.55,13.06,38.44-10.83,14.23-24.45,4.06c-40.13-29.92-41.18-39.55-41.18-39.55s-10.76.47-38-35.3a54,54,0,0,1-9.68-19.7,234.46,234.46,0,0,0-13.87-19.28C78,345.87,65.62,317.58,66.92,296.55s7.61-41.37,23-35.51,27.68,39,34.56,51c5.84,10.11,9,29,9,29s4.58,3.5,13.1,14.25,24.74,37.57,24.74,37.57S175.66,395.16,186.14,408.72Z" transform="translate(-66.83 -20)"/><path class="cls-3" d="M587.9,543.63c-8.42-9.66-16.82-56.35-59.45-53.77-17.48,1.07-54.38,7.88-69,22.1-7.33,7.12-4,55.32-15.25,79.57-14.57,31.36-42,56.53-57.87,44.47-11.9-9.06-27.23-19.15-37.63-38.68-17.29-32.54-24-77.44-1.37-85.74,36.22-13.32,104.51-16.13,162.15-44.66S554,352.07,500.9,359.27c-10.15,1.36-77.48-29.4-94-10-20.37,24-37.7,28.41-52.44,29.95-17.89,1.89-19.89-13.05-50.42,3.42-13.54,7.3-52.81,80.3-67.79,87.49s-25.21,54.06,4.31,107.26,31,84.77,43,113.28,49.88,75.86,92.24,76.28,81.14-9.7,87.28-24.72,9.77-31.51,29.4-23.27,80.2-25.54,104.05-60.4C607,643.44,619.58,580,587.9,543.63Z" transform="translate(-66.83 -20)"/><path class="cls-3" d="M677.09,348.82c-18.9,7.28-30.67,29.23-33.17,58.73-1.64,19.13,2.78,30.06-.87,32.32s-5.39,4.56-7.13,8.68a335.64,335.64,0,0,0-16.83,48.67c-.68,2.72-.55,6.77-1.83,10.29-1.09,2.94-3.59,5.41-3.94,7.38-7.33,41.91,9.86,50.33,24,32.81l1.16-1.19c19.32-19.83,18.55-45.34,31.32-64.36,21.53-32.1,34.66-48,46.15-62.36,8.61-10.86,14.14-28.75,16.37-37.75C740.58,348,708,336.92,677.09,348.82Z" transform="translate(-66.83 -20)"/></g></g></g></svg>