<svg xmlns="http://www.w3.org/2000/svg" width="127.11" height="151.07" viewBox="0 0 127.11 151.07"><defs><style>.cls-1{isolation:isolate;}.cls-2{mix-blend-mode:multiply;}.cls-3{fill:#7ac943;}.cls-4{fill:#ff931e;}.cls-5{fill:#3fa9f5;}</style></defs><g class="cls-1"><g id="Layer_2" data-name="Layer 2"><g id="Layer_1-2" data-name="Layer 1"><g class="cls-2"><path class="cls-3" d="M55.52,54.31c.78.14,3.63,1.09,2.55,6.11a21.68,21.68,0,0,1-2.57,7.15A8.15,8.15,0,0,1,55.43,71c-.58,2.45-1.48,5.84-2.35,6.66a4.49,4.49,0,0,1-.58,2.49c-.71,1.17-1.87,5.39-2.35,6.33a2.22,2.22,0,0,1-2.74.63c-.53-.41-1.3-1.58-.41-4.83s.83-5.54,1.29-5.67c.8-.23.12-.17.1-1.68s1.06-7.69,1.71-8.4c.39-.42-.59-1.12.89-5.27S53.53,53.94,55.52,54.31Z"/><path class="cls-3" d="M31.85,54.57c1,.17,2.34,2.25,2.61,4.56s.85,3.59-.73,3.9c0,0,.94-.08,1.3,1.62s.59,6,.68,7.26,0,1.92-.94,2.58a2.69,2.69,0,0,1,1.35,1.72c.35,1.29,1.36,4.5,1.6,5.32S37,84,36.09,84.64s-2.12-.39-2.51-.78a19.66,19.66,0,0,1-2.08-5.13c-.22-1-.53-3.22-.71-3.68a38.84,38.84,0,0,1-1.19-6.47c0-1.47.13-3.17.13-3.17a3.21,3.21,0,0,0-.49-1.78c-.56-1-1-5.57-.44-7.06C29.47,54.91,30.52,54.33,31.85,54.57Z"/><path class="cls-3" d="M9.12,64a3.53,3.53,0,0,1,4.72,1.15c1.71,2.44,2.9,7.28,2.2,7.61,0,0,1.73.55,2.88,3.37a15,15,0,0,1,1.47,5.27,6.8,6.8,0,0,1,2.51,2.23c.79,1.37,2,4,1.45,5.45s-1.19,2.41-2.66,1.6-4-5-4.68-6a1.55,1.55,0,0,1-.24-1.1s-.61-.16-2-2.28a36.16,36.16,0,0,1-2.48-4.44c-.48-1.33-.84-2.78-.84-2.78S8.38,70,8.36,67,9.12,64,9.12,64Z"/><path class="cls-3" d="M13,96.54s.79,1.09,1.58,2.1A10.74,10.74,0,0,1,16,102.82c.06.75-1.18,1.55-2.66.44C9,100,8.83,99,8.83,99S7.66,99,4.7,95.12A6,6,0,0,1,3.64,93a25.18,25.18,0,0,0-1.51-2.1A11.81,11.81,0,0,1,0,84.35c.14-2.29.83-4.5,2.5-3.86s3,4.24,3.76,5.55a11.9,11.9,0,0,1,1,3.14,10.42,10.42,0,0,1,1.43,1.55c.92,1.17,2.69,4.09,2.69,4.09A7.07,7.07,0,0,1,13,96.54Z"/><path class="cls-3" d="M56.66,111.21c-.92-1-1.83-6.13-6.47-5.84-1.9.11-5.91.85-7.5,2.4-.8.77-.43,6-1.66,8.65-1.58,3.41-4.56,6.15-6.29,4.84a12.8,12.8,0,0,1-4.09-4.21c-1.88-3.54-2.61-8.42-.15-9.32,3.94-1.45,11.36-1.76,17.63-4.86S53,90.38,47.2,91.17c-1.11.14-8.43-3.2-10.22-1.09-2.22,2.61-4.1,3.09-5.7,3.26-2,.21-2.17-1.42-5.49.37-1.47.8-5.74,8.73-7.37,9.51s-2.74,5.88.47,11.67,3.37,9.21,4.68,12.31,5.43,8.25,10,8.3,8.83-1.06,9.49-2.69,1.07-3.42,3.2-2.53S55,127.5,57.6,123.71C58.73,122.07,60.1,115.17,56.66,111.21Z"/><path class="cls-3" d="M66.35,90c-2,.79-3.33,3.18-3.6,6.39-.18,2.08.3,3.26-.1,3.51a1.85,1.85,0,0,0-.77.94,37.09,37.09,0,0,0-1.83,5.3,8.37,8.37,0,0,1-.2,1.12c-.12.31-.39.58-.43.8-.8,4.55,1.07,5.47,2.61,3.56l.12-.12c2.1-2.16,2-4.93,3.41-7a83.8,83.8,0,0,1,5-6.78,12.11,12.11,0,0,0,1.78-4.11C73.26,89.94,69.72,88.74,66.35,90Z"/></g><g class="cls-2"><path class="cls-4" d="M123.29,8.94c.76.44,3.41,2.49.4,7.35a23.58,23.58,0,0,1-5.35,6.55c-.26.27.16,1.2-1.35,3.57s-3.72,5.59-4.94,6.11a5,5,0,0,1-1.53,2.4c-1.18,1-4,5-4.82,5.77a2.47,2.47,0,0,1-3.12-.36c-.39-.63-.77-2.13,1.37-5.21s2.93-5.51,3.47-5.48c.91.06.18-.14.72-1.72s4-7.68,4.92-8.18c.56-.3-.2-1.39,2.9-5.2S121.34,7.81,123.29,8.94Z"/><path class="cls-4" d="M98.35.41c1,.54,1.63,3.24,1,5.76S99,10.26,97.18,10c0,0,1,.26.76,2.18s-1.63,6.57-2,7.88-.68,2-1.95,2.36a3,3,0,0,1,.77,2.3c-.1,1.48-.24,5.23-.3,6.18s-1.68,2.27-2.85,2.65-2.08-1.19-2.35-1.74A22.36,22.36,0,0,1,89,25.64c.14-1.1.65-3.58.63-4.13a43.25,43.25,0,0,1,1.15-7.23C91.34,12.74,92.1,11,92.1,11A3.64,3.64,0,0,0,92.25,9c-.23-1.23,1-6.23,2.16-7.57S97.05-.33,98.35.41Z"/><path class="cls-4" d="M71,1.85a3.94,3.94,0,0,1,4.53,3c.88,3.18.33,8.71-.53,8.79,0,0,1.61,1.23,1.77,4.62.25,5.24-.48,5.45-.42,6.07a7.54,7.54,0,0,1,1.81,3.28c.32,1.73.61,5-.5,6.26s-2.15,2.07-3.39.68S72,27.8,71.61,26.43a1.73,1.73,0,0,1,.16-1.24s-.59-.4-1.22-3.12a43.65,43.65,0,0,1-1-5.58c0-1.58.16-3.23.16-3.23S68,7.83,69.1,4.68,71,1.85,71,1.85Z"/><path class="cls-4" d="M62.94,37.44s.42,1.43.87,2.79a11.76,11.76,0,0,1-.06,4.91c-.22.81-1.81,1.19-3-.52-3.37-5-3.1-6.18-3.1-6.18s-1.25-.38-2.92-5.57a6.55,6.55,0,0,1-.31-2.63,27.14,27.14,0,0,0-.8-2.77,13.1,13.1,0,0,1,.2-7.64c1-2.35,2.54-4.42,4.06-3.13s1.58,5.58,1.88,7.22a13.15,13.15,0,0,1-.15,3.67,10.43,10.43,0,0,1,.92,2.16c.54,1.57,1.31,5.28,1.31,5.28A8,8,0,0,1,62.94,37.44Z"/><path class="cls-4" d="M103.33,69.08c-.57-1.45.36-7.11-4.61-8.54-2-.59-6.52-1.3-8.77-.27-1.12.52-2.69,6.15-5,8.46-2.93,3-7.08,4.76-8.4,2.74a14,14,0,0,1-2.73-5.94c-.66-4.41.39-9.8,3.31-9.84,4.67,0,12.57,2.39,20.3,1.46s9.72-11.3,3.37-12.63c-1.21-.25-7.65-6.48-10.32-4.93-3.29,1.91-5.45,1.72-7.19,1.3-2.12-.51-1.74-2.3-5.89-1.65-1.84.28-9.27,7-11.27,7.24s-5.06,5.15-3.85,12.41.11,10.93.34,14.67S65.29,84.23,70.11,86s9.65,2.17,11,.71,2.38-3.2,4.29-1.47,10.18.33,14.31-2.69C101.47,81.24,105.47,74.5,103.33,69.08Z"/><path class="cls-4" d="M121.38,50.45c-2.45.07-4.68,2.1-6.16,5.36-1,2.12-.9,3.54-1.4,3.65a2,2,0,0,0-1.17.71A41.54,41.54,0,0,0,108.76,65a8.62,8.62,0,0,1-.62,1.1c-.24.29-.63.47-.75.68-2.53,4.49-.91,6.14,1.41,4.72l.18-.09c3-1.48,4-4.43,6.17-6.08,3.76-2.79,5.9-4.08,7.79-5.25a13.43,13.43,0,0,0,3.4-3.65C128.66,52.92,125.39,50.34,121.38,50.45Z"/></g><g class="cls-2"><path class="cls-5" d="M87,90c-.58,0-2.75.19-2.79,3.91a15.68,15.68,0,0,0,.66,5.47,6,6,0,0,0-.5,2.43c0,1.83.1,4.38.59,5.09a3.36,3.36,0,0,0,0,1.86c.32.94.46,4.11.65,4.85a1.62,1.62,0,0,0,1.84.89c.43-.21,1.17-.9,1.06-3.35s.31-4,0-4.22c-.52-.28,0-.14.21-1.2s.48-5.61.14-6.22c-.2-.36.59-.69.22-3.87S88.45,90.07,87,90Z"/><path class="cls-5" d="M103.67,94c-.71,0-2,1.21-2.58,2.8s-1.18,2.4-.11,2.88c0,0-.65-.21-1.18.93s-1.39,4.18-1.66,5-.33,1.35.25,2a2,2,0,0,0-1.23,1c-.45.85-1.69,3-2,3.51a3,3,0,0,0,.65,2.45c.51.63,1.56.07,1.9-.14a14.41,14.41,0,0,0,2.3-3.29c.31-.65.9-2.2,1.1-2.49a27.83,27.83,0,0,0,1.88-4.38c.23-1.05.42-2.27.42-2.27a2.4,2.4,0,0,1,.64-1.18,10.24,10.24,0,0,0,1.45-4.92C105.3,94.64,104.65,94.06,103.67,94Z"/><path class="cls-5" d="M118.22,104.35a2.55,2.55,0,0,0-3.52.05c-1.6,1.45-3.22,4.68-2.78,5a4,4,0,0,0-2.58,1.93,10.79,10.79,0,0,0-1.89,3.48,4.83,4.83,0,0,0-2.13,1.18c-.78.84-2.08,2.52-1.91,3.62s.46,1.89,1.62,1.56,3.61-2.9,4.29-3.53a1.15,1.15,0,0,0,.35-.74s.45,0,1.75-1.29a28.09,28.09,0,0,0,2.47-2.74c.55-.87,1-1.83,1-1.83s2.85-2.38,3.36-4.5S118.22,104.35,118.22,104.35Z"/><path class="cls-5" d="M110.25,126.74s-.73.64-1.45,1.23a7.81,7.81,0,0,0-1.68,2.73c-.17.52.58,1.28,1.81.74,3.61-1.6,3.86-2.32,3.86-2.32s.82.22,3.54-2.05a4.26,4.26,0,0,0,1.09-1.34s.56-.56,1.41-1.24a8.57,8.57,0,0,0,2.55-4.28c.27-1.64.14-3.31-1.14-3.13s-2.81,2.51-3.55,3.32a8.47,8.47,0,0,0-1.2,2.06,6.88,6.88,0,0,0-1.26.87c-.84.68-2.56,2.45-2.56,2.45A5.34,5.34,0,0,0,110.25,126.74Z"/><path class="cls-5" d="M77,130.07c.82-.6,2.28-4,5.52-3.09,1.32.39,4,1.56,4.91,2.91.44.67-.66,4.32-.22,6.38.57,2.67,2.24,5.08,3.67,4.44a9.24,9.24,0,0,0,3.57-2.32c1.9-2.2,3.21-5.53,1.61-6.57-2.55-1.66-7.75-3.07-11.68-6.28s-1.41-9.61,2.55-8.12c.75.28,6.47-.9,7.4.88a5.75,5.75,0,0,0,3.5,3.22c1.34.46,1.76-.65,3.82,1.15.91.8,2.65,7.1,3.68,7.92s1,4.6-2.22,8.17-3.87,6-5.29,8-5.17,5-8.43,4.25-6.07-2.17-6.28-3.43-.2-2.6-1.85-2.31-5.72-3.37-6.94-6.47C73.78,137.41,73.92,132.31,77,130.07Z"/><path class="cls-5" d="M73.55,113.53c1.33.89,1.85,2.78,1.52,5.09-.21,1.5-.74,2.26-.5,2.5a1.28,1.28,0,0,1,.4.79,27.52,27.52,0,0,1,.44,4,5.24,5.24,0,0,0,0,.83c0,.24.18.47.17.63-.17,3.35-1.64,3.7-2.42,2.1l-.06-.11c-1.14-1.86-.63-3.81-1.28-5.5-1.1-2.84-1.83-4.29-2.46-5.6a8.68,8.68,0,0,1-.59-3.19C68.69,112.35,71.39,112.07,73.55,113.53Z"/></g></g></g></g></svg>