<svg xmlns="http://www.w3.org/2000/svg" width="73.91" height="87.59" viewBox="0 0 73.91 87.59"><defs><style>.cls-1{isolation:isolate;}.cls-2{mix-blend-mode:multiply;}.cls-3{fill:#fff;}</style></defs><g class="cls-1"><g id="Layer_2" data-name="Layer 2"><g id="Layer_1-2" data-name="Layer 1"><g class="cls-2"><path class="cls-3" d="M70.1,8.94c.76.44,3.4,2.49.39,7.35a23.58,23.58,0,0,1-5.35,6.55c-.26.27.16,1.2-1.35,3.57S60.07,32,58.86,32.52a5,5,0,0,1-1.54,2.4c-1.18,1-4,5-4.82,5.77a2.46,2.46,0,0,1-3.11-.36c-.4-.63-.78-2.13,1.36-5.21s2.93-5.51,3.47-5.48c.92.06.18-.14.73-1.72s4-7.68,4.92-8.18c.56-.3-.2-1.39,2.89-5.2S68.14,7.81,70.1,8.94Z"/><path class="cls-3" d="M45.15.41c1,.54,1.63,3.24,1,5.76S45.76,10.26,44,10c0,0,1,.26.76,2.18s-1.63,6.57-2,7.88-.67,2-1.94,2.36a3,3,0,0,1,.77,2.3c-.11,1.48-.24,5.23-.3,6.18s-1.69,2.27-2.86,2.65-2.08-1.19-2.34-1.74a22,22,0,0,1-.28-6.16c.13-1.1.64-3.58.62-4.13a42.39,42.39,0,0,1,1.16-7.23c.56-1.54,1.32-3.28,1.32-3.28A3.7,3.7,0,0,0,39.05,9c-.23-1.23,1-6.23,2.16-7.57S43.85-.33,45.15.41Z"/><path class="cls-3" d="M17.8,1.85a3.93,3.93,0,0,1,4.53,3c.88,3.18.33,8.71-.52,8.79,0,0,1.6,1.23,1.77,4.62.25,5.24-.48,5.45-.42,6.07A7.56,7.56,0,0,1,25,27.58c.32,1.73.61,5-.5,6.26s-2.14,2.07-3.39.68-2.3-6.72-2.66-8.09a1.79,1.79,0,0,1,.16-1.24s-.58-.4-1.21-3.12a42.58,42.58,0,0,1-1-5.58c0-1.58.16-3.23.16-3.23s-1.75-5.43-.66-8.58S17.8,1.85,17.8,1.85Z"/><path class="cls-3" d="M9.74,37.44s.43,1.43.88,2.79a12.11,12.11,0,0,1-.06,4.91c-.22.81-1.82,1.19-3-.52-3.37-5-3.1-6.18-3.1-6.18s-1.24-.38-2.91-5.57a6.55,6.55,0,0,1-.31-2.63S1,29,.48,27.47a13,13,0,0,1,.2-7.64c1-2.35,2.54-4.42,4.05-3.13s1.58,5.58,1.88,7.22a13.3,13.3,0,0,1-.14,3.67,11.21,11.21,0,0,1,.92,2.16C7.92,31.32,8.69,35,8.69,35A7.6,7.6,0,0,1,9.74,37.44Z"/><path class="cls-3" d="M50.13,69.08c-.57-1.45.36-7.11-4.61-8.54-2-.59-6.52-1.3-8.76-.27-1.13.52-2.69,6.15-5,8.46-2.93,3-7.08,4.76-8.4,2.74a14.21,14.21,0,0,1-2.73-5.94c-.66-4.41.39-9.8,3.31-9.84,4.67,0,12.57,2.39,20.31,1.46S54,45.85,47.66,44.52C46.44,44.27,40,38,37.34,39.59c-3.3,1.91-5.45,1.72-7.2,1.3-2.11-.51-1.74-2.3-5.89-1.65-1.84.28-9.27,7-11.27,7.24S7.92,51.63,9.14,58.89s.1,10.93.33,14.67S12.1,84.23,16.91,86s9.65,2.17,11,.71,2.39-3.2,4.3-1.47,10.18.33,14.31-2.69C48.28,81.24,52.28,74.5,50.13,69.08Z"/><path class="cls-3" d="M68.18,50.45c-2.45.07-4.68,2.1-6.16,5.36-1,2.12-.89,3.54-1.4,3.65a2,2,0,0,0-1.17.71A40.31,40.31,0,0,0,55.57,65a10.27,10.27,0,0,1-.63,1.1c-.24.29-.63.47-.75.68-2.53,4.49-.91,6.14,1.41,4.72l.18-.09C58.79,70,59.73,67,62,65.37a93.44,93.44,0,0,1,7.78-5.25,13.27,13.27,0,0,0,3.4-3.65C75.46,52.92,72.19,50.34,68.18,50.45Z"/></g></g></g></g></svg>