<svg xmlns="http://www.w3.org/2000/svg" width="52.77" height="61.06" viewBox="0 0 52.77 61.06"><defs><style>.cls-1{isolation:isolate;}.cls-2{mix-blend-mode:multiply;}.cls-3{fill:#fff;}</style></defs><g class="cls-1"><g id="Layer_2" data-name="Layer 2"><g id="Layer_1-2" data-name="Layer 1"><g class="cls-2"><path class="cls-3" d="M18.25,0c-.57,0-2.74.19-2.78,3.91a15.55,15.55,0,0,0,.65,5.47,6.13,6.13,0,0,0-.49,2.43c0,1.83.09,4.37.58,5.09a3.3,3.3,0,0,0,0,1.86c.31.94.45,4.11.64,4.85a1.62,1.62,0,0,0,1.84.89c.44-.21,1.17-.9,1.07-3.35s.3-4,0-4.22c-.52-.29-.05-.14.21-1.2s.49-5.61.14-6.22c-.2-.36.6-.7.22-3.87S19.72.06,18.25,0Z"/><path class="cls-3" d="M35,4c-.71,0-2,1.21-2.58,2.8s-1.19,2.4-.12,2.88c0,0-.65-.22-1.18.93s-1.39,4.18-1.65,5-.34,1.35.24,2a1.93,1.93,0,0,0-1.22,1c-.46.85-1.69,3-2,3.51a2.9,2.9,0,0,0,.65,2.45c.51.62,1.56.07,1.89-.14a14.1,14.1,0,0,0,2.3-3.29c.32-.65.9-2.2,1.1-2.49a28.44,28.44,0,0,0,1.89-4.39c.23-1,.41-2.26.41-2.26a2.4,2.4,0,0,1,.64-1.18,10.24,10.24,0,0,0,1.45-4.92C36.57,4.63,35.92,4.05,35,4Z"/><path class="cls-3" d="M49.5,14.33a2.57,2.57,0,0,0-3.53.06c-1.6,1.45-3.22,4.68-2.78,5a4,4,0,0,0-2.58,1.92,10.92,10.92,0,0,0-1.88,3.49A4.89,4.89,0,0,0,36.59,26c-.78.84-2.07,2.52-1.91,3.61s.46,1.89,1.63,1.57,3.61-2.9,4.28-3.53a1.15,1.15,0,0,0,.35-.74s.46,0,1.75-1.29a28.83,28.83,0,0,0,2.48-2.74c.54-.87,1-1.83,1-1.83s2.86-2.38,3.36-4.5S49.5,14.33,49.5,14.33Z"/><path class="cls-3" d="M41.52,36.73s-.73.64-1.45,1.23a8,8,0,0,0-1.68,2.73c-.16.52.58,1.28,1.81.74,3.61-1.6,3.86-2.32,3.86-2.32s.82.22,3.54-2a4.09,4.09,0,0,0,1.09-1.34,18.6,18.6,0,0,1,1.41-1.24,8.5,8.5,0,0,0,2.55-4.28c.28-1.64.15-3.31-1.14-3.13S48.7,29.58,48,30.38a8.65,8.65,0,0,0-1.2,2.07,6.88,6.88,0,0,0-1.26.87c-.84.68-2.56,2.45-2.56,2.45A5.17,5.17,0,0,0,41.52,36.73Z"/><path class="cls-3" d="M8.27,40.06c.81-.6,2.28-4,5.51-3.09,1.32.38,4,1.56,4.92,2.91.44.67-.67,4.32-.23,6.38.57,2.67,2.24,5.08,3.67,4.43a9,9,0,0,0,3.57-2.31c1.9-2.2,3.21-5.53,1.61-6.57-2.55-1.66-7.75-3.07-11.68-6.28s-1.41-9.61,2.55-8.12c.75.28,6.47-.9,7.4.88a5.76,5.76,0,0,0,3.51,3.22c1.34.46,1.75-.65,3.81,1.15.92.8,2.65,7.1,3.68,7.92s1,4.6-2.21,8.17-3.87,6-5.3,8-5.17,5-8.43,4.25-6.07-2.17-6.28-3.43-.2-2.6-1.85-2.31S6.8,51.84,5.58,48.74C5.05,47.4,5.19,42.3,8.27,40.06Z"/><path class="cls-3" d="M4.83,23.51c1.32.89,1.84,2.79,1.51,5.1-.2,1.5-.74,2.26-.49,2.5a1.32,1.32,0,0,1,.39.79,26.21,26.21,0,0,1,.44,4c0,.22-.07.53,0,.82s.18.48.17.64c-.17,3.35-1.64,3.7-2.41,2.1l-.07-.11c-1.14-1.86-.63-3.81-1.28-5.5C2,31.05,1.23,29.59.6,28.29A8.51,8.51,0,0,1,0,25.1C0,22.34,2.66,22.06,4.83,23.51Z"/></g></g></g></g></svg>