<svg xmlns="http://www.w3.org/2000/svg" width="72.5" height="81.22" viewBox="0 0 72.5 81.22"><defs><style>.cls-1{isolation:isolate;}.cls-2{mix-blend-mode:multiply;}.cls-3{fill:#fff;}</style></defs><g class="cls-1"><g id="Layer_2" data-name="Layer 2"><g id="Layer_1-2" data-name="Layer 1"><g class="cls-2"><path class="cls-3" d="M55.52,0c.78.14,3.63,1.09,2.55,6.11a21.56,21.56,0,0,1-2.57,7.15,8.16,8.16,0,0,1-.07,3.42c-.58,2.45-1.48,5.85-2.35,6.66a4.48,4.48,0,0,1-.58,2.49c-.71,1.18-1.87,5.39-2.35,6.33a2.22,2.22,0,0,1-2.74.63c-.53-.41-1.3-1.57-.41-4.82s.83-5.55,1.29-5.68c.8-.22.12-.17.1-1.68s1.06-7.69,1.71-8.4c.39-.42-.59-1.12.89-5.27S53.53-.34,55.52,0Z"/><path class="cls-3" d="M31.85.29c1,.17,2.34,2.25,2.61,4.56s.85,3.6-.73,3.9c0,0,.94-.08,1.3,1.62s.59,6.05.68,7.27,0,1.91-.94,2.58a2.65,2.65,0,0,1,1.35,1.72c.35,1.28,1.36,4.5,1.6,5.32s-.75,2.42-1.63,3.1S34,30,33.58,29.59a20,20,0,0,1-2.08-5.13c-.22-1-.53-3.23-.71-3.69A38.84,38.84,0,0,1,29.6,14.3c0-1.47.13-3.17.13-3.17a3.21,3.21,0,0,0-.49-1.78c-.56-1-1-5.57-.44-7.06C29.47.63,30.52.05,31.85.29Z"/><path class="cls-3" d="M9.12,9.71a3.53,3.53,0,0,1,4.72,1.16c1.71,2.43,2.9,7.27,2.2,7.6,0,0,1.73.56,2.88,3.38a14.91,14.91,0,0,1,1.47,5.27,6.8,6.8,0,0,1,2.51,2.23c.79,1.37,2,4,1.45,5.45s-1.19,2.4-2.66,1.6-4-5-4.68-6.06a1.55,1.55,0,0,1-.24-1.1s-.61-.16-2-2.27a37,37,0,0,1-2.48-4.44c-.48-1.34-.84-2.78-.84-2.78s-3.11-4.08-3.13-7.07S9.12,9.71,9.12,9.71Z"/><path class="cls-3" d="M13,42.27s.79,1.08,1.58,2.09A10.74,10.74,0,0,1,16,48.54c.06.75-1.18,1.55-2.66.44-4.36-3.25-4.48-4.3-4.48-4.3s-1.17,0-4.13-3.84A6,6,0,0,1,3.64,38.7a24.22,24.22,0,0,0-1.51-2.09A11.85,11.85,0,0,1,0,30.07c.14-2.29.83-4.5,2.5-3.86s3,4.24,3.76,5.55a12,12,0,0,1,1,3.15,9.74,9.74,0,0,1,1.43,1.55c.92,1.17,2.69,4.08,2.69,4.08A7,7,0,0,1,13,42.27Z"/><path class="cls-3" d="M56.66,56.94c-.92-1.06-1.83-6.13-6.47-5.85-1.9.11-5.91.86-7.5,2.4-.8.78-.43,6-1.66,8.65-1.58,3.41-4.56,6.15-6.29,4.84a12.7,12.7,0,0,1-4.09-4.21c-1.88-3.54-2.61-8.42-.15-9.32C34.44,52,41.86,51.7,48.13,48.59S53,36.11,47.2,36.89c-1.11.15-8.43-3.2-10.22-1.08-2.22,2.6-4.1,3.09-5.7,3.25-2,.21-2.17-1.42-5.49.37-1.47.8-5.74,8.74-7.37,9.52s-2.74,5.88.47,11.66,3.37,9.22,4.68,12.32,5.43,8.25,10,8.29,8.83-1,9.49-2.69,1.07-3.42,3.2-2.53S55,73.23,57.6,69.44C58.73,67.79,60.1,60.89,56.66,56.94Z"/><path class="cls-3" d="M66.35,35.75c-2,.79-3.33,3.18-3.6,6.39-.18,2.08.3,3.27-.1,3.51a1.83,1.83,0,0,0-.77,1,37,37,0,0,0-1.83,5.29,8.1,8.1,0,0,1-.2,1.12c-.12.32-.39.59-.43.8-.8,4.56,1.07,5.47,2.61,3.57l.12-.13c2.1-2.16,2-4.93,3.41-7a83.8,83.8,0,0,1,5-6.78,12.11,12.11,0,0,0,1.78-4.11C73.26,35.66,69.72,34.46,66.35,35.75Z"/></g></g></g></g></svg>